<svg width="103" height="107" viewBox="0 0 103 107" fill="none" xmlns="http://www.w3.org/2000/svg">
<g id="Leo 3">
<path id="Vector" d="M23.1074 101.607C34.4293 101.607 43.6074 92.429 43.6074 81.1072C43.6074 69.7854 34.4293 60.6072 23.1074 60.6072C11.7856 60.6072 2.60742 69.7854 2.60742 81.1072C2.60742 92.429 11.7856 101.607 23.1074 101.607Z" fill="white"/>
<path id="Vector_2" d="M22.6074 100.107C33.377 100.107 42.1074 91.3768 42.1074 80.6072C42.1074 69.8377 33.377 61.1072 22.6074 61.1072C11.8379 61.1072 3.10742 69.8377 3.10742 80.6072C3.10742 91.3768 11.8379 100.107 22.6074 100.107Z" stroke="#DEE5FF" stroke-width="3"/>
<g id="Mask group">
<mask id="mask0_954_4641" style="mask-type:luminance" maskUnits="userSpaceOnUse" x="17" y="58" width="32" height="47">
<g id="Group">
<path id="Vector_3" d="M20.1575 99.5813C19.9611 100.314 20.3955 101.073 21.1401 101.22C23.3252 101.651 25.5691 101.723 27.7834 101.432C30.4525 101.08 33.0262 100.207 35.3576 98.8607C37.6891 97.5146 39.7325 95.7225 41.3714 93.5867C43.0102 91.451 44.2123 89.0133 44.9091 86.4129C45.6059 83.8126 45.7836 81.1004 45.4322 78.4314C45.0809 75.7623 44.2072 73.1886 42.8611 70.8571C41.5151 68.5257 39.723 66.4822 37.5872 64.8434C35.8154 63.4838 33.8357 62.4248 31.7278 61.7055C31.0096 61.4604 30.2542 61.8999 30.0578 62.6329C29.8614 63.366 30.2987 64.1143 31.0143 64.3668C32.7747 64.988 34.4288 65.8838 35.9142 67.0237C37.7637 68.4428 39.3155 70.2124 40.4811 72.2312C41.6467 74.2501 42.4033 76.4788 42.7076 78.7901C43.0118 81.1013 42.8579 83.4499 42.2546 85.7016C41.6512 87.9534 40.6102 90.0643 39.1911 91.9138C37.7719 93.7632 36.0024 95.3151 33.9835 96.4807C31.9647 97.6463 29.736 98.4028 27.4247 98.7071C25.5683 98.9515 23.6879 98.9003 21.8528 98.558C21.1068 98.4189 20.3539 98.8483 20.1575 99.5813Z" stroke="#DEE5FF" stroke-width="6"/>
</g>
</mask>
<g mask="url(#mask0_954_4641)">
<path id="Vector_4" d="M20.1575 99.5813C19.9611 100.314 20.3955 101.073 21.1401 101.22C23.3252 101.651 25.5691 101.723 27.7834 101.432C30.4525 101.08 33.0262 100.207 35.3576 98.8607C37.6891 97.5146 39.7325 95.7225 41.3714 93.5867C43.0102 91.451 44.2123 89.0133 44.9091 86.4129C45.6059 83.8126 45.7836 81.1004 45.4322 78.4314C45.0809 75.7623 44.2072 73.1886 42.8611 70.8571C41.5151 68.5257 39.723 66.4822 37.5872 64.8434C35.8154 63.4838 33.8357 62.4248 31.7278 61.7055C31.0096 61.4604 30.2542 61.8999 30.0578 62.6329C29.8614 63.366 30.2987 64.1143 31.0143 64.3668C32.7747 64.988 34.4288 65.8838 35.9142 67.0237C37.7637 68.4428 39.3155 70.2124 40.4811 72.2312C41.6467 74.2501 42.4033 76.4788 42.7076 78.7901C43.0118 81.1013 42.8579 83.4499 42.2546 85.7016C41.6512 87.9534 40.6102 90.0643 39.1911 91.9138C37.7719 93.7632 36.0024 95.3151 33.9835 96.4807C31.9647 97.6463 29.736 98.4028 27.4247 98.7071C25.5683 98.9515 23.6879 98.9003 21.8528 98.558C21.1068 98.4189 20.3539 98.8483 20.1575 99.5813Z" stroke="#DEE5FF" stroke-width="3"/>
</g>
</g>
<path id="Vector_5" d="M68.9062 11.2884L67.8772 12.3798L67.903 12.4042L67.93 12.4273L68.9062 11.2884ZM71.9062 40.7885L73.2849 41.3793L73.3009 41.342L73.3149 41.3038L71.9062 40.7885ZM61.5275 61.1976C61.2012 61.959 61.5539 62.8408 62.3153 63.1672C63.0768 63.4935 63.9586 63.1408 64.2849 62.3793L61.5275 61.1976ZM42.3905 70.4379C40.1045 64.7816 37.4001 59.0082 34.9196 53.4251C32.4251 47.8104 30.1451 42.3637 28.6316 37.2324C25.5926 26.9287 25.7827 18.4347 32.8751 12.4335L30.9373 10.1433C22.4296 17.3421 22.6198 27.4539 25.7542 38.081C27.3274 43.4151 29.6775 49.0151 32.178 54.6432C34.6926 60.3028 37.3484 65.9684 39.6091 71.5621L42.3905 70.4379ZM32.8751 12.4335C40.3376 6.11903 47.6945 4.85821 53.8513 5.76006C60.0745 6.67165 65.1504 9.80878 67.8772 12.3798L69.9352 10.197C66.8287 7.26802 61.2045 3.80516 54.2861 2.79174C47.3012 1.7686 39.0747 3.25778 30.9373 10.1433L32.8751 12.4335ZM67.93 12.4273C70.8757 14.9522 76.3207 24.3563 70.4975 40.2731L73.3149 41.3038C79.4917 24.4206 73.9367 13.6247 69.8824 10.1495L67.93 12.4273ZM70.5275 40.1976L61.5275 61.1976L64.2849 62.3793L73.2849 41.3793L70.5275 40.1976Z" fill="#DEE5FF"/>
<path id="Vector_6" d="M59.4248 62.3429C63.0497 57.2649 68 45.5 70.5 40.5H73.5C71 49 67.6369 60.3117 64.9554 64.8818C61.0393 69.9598 57.8116 64.6026 59.4248 62.3429Z" fill="#DEE5FF"/>
<path id="Vector_7" d="M63 77C63.8333 84 69 97.7 83 96.5C97 95.3 101.167 83 101.5 77" stroke="#DEE5FF" stroke-width="3" stroke-linecap="round"/>
<path id="Vector_8" d="M82.9997 98C69.9997 98.5 63.9997 95.0239 61.7734 78.2887L62.7975 79.2808C68.4621 97.4701 78.2346 98.3311 82.9997 96V98Z" fill="#DEE5FF"/>
<path id="Vector_9" d="M53.4337 3.59523C54.2603 3.65034 54.975 3.02492 55.0301 2.19833C55.0852 1.37174 54.4598 0.656985 53.6332 0.601879L53.4337 3.59523ZM26.9762 29.7317C26.0391 24.5778 26.9954 17.6342 30.9761 12.212C34.8923 6.87745 41.8769 2.82478 53.4337 3.59523L53.6332 0.601879C41.19 -0.227672 33.158 4.17037 28.5578 10.4366C24.0219 16.6151 22.9617 24.4222 24.0246 30.2683L26.9762 29.7317Z" fill="#DEE5FF"/>
<path id="Vector_10" d="M55.5 2.5C55.5 0.5 54.5 0.5 51.5 0.5L52.5 5.5C53.5 5.5 55.5 4.09963 55.5 2.5Z" fill="#DEE5FF"/>
</g>
</svg>
