<svg width="102" height="97" viewBox="0 0 102 97" fill="none" xmlns="http://www.w3.org/2000/svg">
<g id="Pieces 3" clip-path="url(#clip0_954_4632)">
<path id="Vector" d="M78.5 61C90.9264 61 101 50.9264 101 38.5C101 26.0736 90.9264 16 78.5 16C66.0736 16 56 26.0736 56 38.5C56 50.9264 66.0736 61 78.5 61Z" fill="white"/>
<path id="Vector_2" d="M91.0003 55.3802L91.8166 56.6387L91.8565 56.6128L91.8948 56.5844L91.0003 55.3802ZM61.0003 51.3802L62.2183 50.5048L62.1472 50.4058L62.061 50.3196L61.0003 51.3802ZM64.7003 23.2802C65.1974 22.6175 65.063 21.6773 64.4003 21.1802C63.7376 20.6832 62.7974 20.8175 62.3003 21.4802L64.7003 23.2802ZM3.87855 20.5962C12.7169 14.2129 27.8747 6.6878 44.5109 4.89659C61.0841 3.11216 79.0726 7.01164 93.888 23.3866L96.1126 21.3738C80.528 4.14878 61.5165 0.0482606 44.1897 1.91383C26.9259 3.77262 11.2837 11.5475 2.12207 18.1642L3.87855 20.5962ZM93.888 23.3866C96.3419 26.0988 98.7187 31.3907 98.7861 37.2475C98.8526 43.0192 96.6798 49.2926 90.1058 54.1761L91.8948 56.5844C99.3208 51.0679 101.862 43.8413 101.786 37.213C101.71 30.6698 99.0873 24.6617 96.1126 21.3738L93.888 23.3866ZM90.184 54.1218C83.1361 58.6934 77.0466 58.9454 72.3142 57.5421C67.511 56.1178 63.9726 52.9456 62.2183 50.5048L59.7823 52.2557C61.8613 55.1482 65.923 58.776 71.4614 60.4184C77.0707 62.0817 84.0645 61.6671 91.8166 56.6387L90.184 54.1218ZM62.061 50.3196C58.9547 47.2133 54.32 37.1206 64.7003 23.2802L62.3003 21.4802C51.0806 36.4398 55.7126 48.2138 59.9396 52.4409L62.061 50.3196Z" fill="#DEE5FF"/>
<path id="Vector_3" d="M97.6883 25.7285C98.0906 26.4527 99.0039 26.7136 99.7281 26.3113C100.453 25.909 100.714 24.9958 100.311 24.2716L97.6883 25.7285ZM30.0303 7.90289C39.0583 4.48701 52.4182 2.40148 65.3234 4.48097C78.1987 6.55566 90.4731 12.7412 97.6883 25.7285L100.311 24.2716C92.5259 10.2589 79.3004 3.69446 65.8007 1.51917C52.3309 -0.651318 38.4408 1.51313 28.9688 5.09702L30.0303 7.90289Z" fill="#DEE5FF"/>
<path id="Vector_4" d="M63.701 52.4999L62.0004 54.5C56.0004 49.5 53.485 40.0769 54.5004 35C55.5004 30 58.0344 22.1491 60.7011 19.3158C65.7011 16.3158 67.7011 20.8158 65.7011 22.8158L63.7011 24.8158C62.0005 26.9999 61.0005 29.4999 60.5005 30.4999C55.7005 42.0999 60.5005 49.9999 63.701 52.4999Z" fill="#DEE5FF"/>
<path id="Vector_5" d="M23.5 36C11.0736 36 1 46.0736 1 58.5C1 70.9264 11.0736 81 23.5 81C35.9264 81 46 70.9264 46 58.5C46 46.0736 35.9264 36 23.5 36Z" fill="white"/>
<path id="Vector_6" d="M11.0002 41.6197L10.1839 40.3613L10.144 40.3872L10.1057 40.4156L11.0002 41.6197ZM41.0002 45.6197L39.7822 46.4952L39.8533 46.5942L39.9395 46.6804L41.0002 45.6197ZM37.3002 73.7198C36.8031 74.3825 36.9375 75.3227 37.6002 75.8198C38.2629 76.3168 39.2031 76.1825 39.7002 75.5198L37.3002 73.7198ZM98.122 76.4038C89.2836 82.7871 74.1258 90.3122 57.4896 92.1034C40.9164 93.8878 22.9279 89.9884 8.11249 73.6134L5.88788 75.6262C21.4725 92.8512 40.484 96.9517 57.8108 95.0862C75.0746 93.2274 90.7168 85.4525 99.8784 78.8358L98.122 76.4038ZM8.11249 73.6134C5.65859 70.9012 3.28183 65.6093 3.21436 59.7525C3.14787 53.9808 5.32068 47.7074 11.8947 42.8239L10.1057 40.4156C2.67969 45.9321 0.138197 53.1587 0.214554 59.787C0.289931 66.3302 2.91317 72.3383 5.88788 75.6262L8.11249 73.6134ZM11.8165 42.8782C18.8644 38.3066 24.9539 38.0545 29.6863 39.4578C34.4895 40.8822 38.0279 44.0544 39.7822 46.4952L42.2182 44.7443C40.1392 41.8517 36.0775 38.224 30.5392 36.5816C24.9298 34.9183 17.936 35.3329 10.1839 40.3613L11.8165 42.8782ZM39.9395 46.6804C43.0458 49.7867 47.6805 59.8794 37.3002 73.7198L39.7002 75.5198C50.9199 60.5602 46.2879 48.7862 42.0609 44.5591L39.9395 46.6804Z" fill="#DEE5FF"/>
<path id="Vector_7" d="M4.31151 71.2715C3.90919 70.5473 2.99599 70.2864 2.27181 70.6887C1.54763 71.091 1.28672 72.0042 1.68904 72.7284L4.31151 71.2715ZM71.9695 89.0971C62.9415 92.513 49.5816 94.5985 36.6764 92.519C23.8011 90.4443 11.5267 84.2588 4.31151 71.2715L1.68904 72.7284C9.47387 86.7411 22.6995 93.3055 36.1992 95.4808C49.669 97.6513 63.5591 95.4869 73.0311 91.903L71.9695 89.0971Z" fill="#DEE5FF"/>
<path id="Vector_8" d="M38.2997 44.5001L40.0003 42.5C46.0003 47.5 48.5157 56.9231 47.5003 62C46.5003 67 43.9663 74.8509 41.2996 77.6842C36.2996 80.6842 34.2996 76.1842 36.2996 74.1842L38.2996 72.1842C40.0002 70.0001 41.0002 67.5001 41.5002 66.5001C46.3002 54.9001 41.5002 47.0001 38.2997 44.5001Z" fill="#DEE5FF"/>
</g>
<defs>
<clipPath id="clip0_954_4632">
<rect width="102" height="97" fill="white"/>
</clipPath>
</defs>
</svg>
