<svg width="21" height="21" viewBox="0 0 21 21" fill="none" xmlns="http://www.w3.org/2000/svg">
<g id="calendar-empty-alt">
<path id="calendar-empty-alt_2" d="M18.375 8.79379V15.75C18.375 17.5 17.5 18.375 15.75 18.375H5.25C3.5 18.375 2.625 17.5 2.625 15.75V8.79379C2.625 8.64854 2.74229 8.53125 2.88754 8.53125H18.1125C18.2577 8.53125 18.375 8.64854 18.375 8.79379ZM15.75 3.9375H14.6562V2.625C14.6562 2.26625 14.3588 1.96875 14 1.96875C13.6412 1.96875 13.3438 2.26625 13.3438 2.625V3.9375H7.65625V2.625C7.65625 2.26625 7.35875 1.96875 7 1.96875C6.64125 1.96875 6.34375 2.26625 6.34375 2.625V3.9375H5.25C3.5 3.9375 2.625 4.8125 2.625 6.5625V6.95621C2.625 7.10146 2.74229 7.21875 2.88754 7.21875H18.1125C18.2577 7.21875 18.375 7.10146 18.375 6.95621V6.5625C18.375 4.8125 17.5 3.9375 15.75 3.9375Z" fill="white" fill-opacity="0.7"/>
</g>
</svg>
