<svg width="19" height="19" viewBox="0 0 19 19" fill="none" xmlns="http://www.w3.org/2000/svg">
<g id="eye">
<path id="eye_2" d="M16.6418 8.12811C15.623 6.42286 13.3414 3.5625 9.50023 3.5625C5.65906 3.5625 3.37748 6.42286 2.35861 8.12811C1.85194 8.9744 1.85196 10.0256 2.35783 10.8727C3.37671 12.5779 5.65829 15.4383 9.49945 15.4383C13.3406 15.4383 15.6222 12.5779 16.6411 10.8727C17.1477 10.0256 17.1477 8.9744 16.6418 8.12811ZM15.9627 10.4666C15.9619 10.4666 15.9619 10.4666 15.9627 10.4666C15.0301 12.0278 12.9503 14.6458 9.50023 14.6458C6.05014 14.6458 3.97037 12.027 3.03778 10.4666C2.68233 9.87046 2.68231 9.13031 3.03856 8.53419C3.97035 6.97302 6.05014 4.35494 9.50023 4.35494C12.9503 4.35494 15.0301 6.97381 15.9627 8.53419C16.3181 9.12952 16.3181 9.87046 15.9627 10.4666ZM9.50023 6.33333C7.75381 6.33333 6.33356 7.75358 6.33356 9.5C6.33356 11.2464 7.75381 12.6667 9.50023 12.6667C11.2466 12.6667 12.6669 11.2464 12.6669 9.5C12.6669 7.75358 11.2466 6.33333 9.50023 6.33333ZM9.50023 11.875C8.19081 11.875 7.12523 10.8094 7.12523 9.5C7.12523 8.19058 8.19081 7.125 9.50023 7.125C10.8096 7.125 11.8752 8.19058 11.8752 9.5C11.8752 10.8094 10.8096 11.875 9.50023 11.875Z" fill="white" fill-opacity="0.7"/>
</g>
</svg>
