<svg width="25" height="25" viewBox="0 0 25 25" fill="none" xmlns="http://www.w3.org/2000/svg">
<g id="Group 258">
<path id="Subtract" fill-rule="evenodd" clip-rule="evenodd" d="M11.6072 0V2.67858H13.3929V0H11.6072ZM16.6183 17.2016C17.925 16.056 18.7501 14.3744 18.7501 12.5C18.7501 9.04826 15.9518 6.25002 12.5 6.25002C9.04826 6.25002 6.25002 9.04826 6.25002 12.5C6.25002 12.6267 6.25379 12.7524 6.26121 12.8771C5.64983 13.092 5.07903 13.3931 4.56342 13.7658C4.49818 13.3535 4.4643 12.9307 4.4643 12.5C4.4643 8.06203 8.06203 4.4643 12.5 4.4643C16.9381 4.4643 20.5358 8.06203 20.5358 12.5C20.5358 14.7041 19.6484 16.7009 18.2115 18.1527C17.7578 17.7324 17.2166 17.4053 16.6183 17.2016ZM22.3215 11.6072H25.0001V13.3929H22.3215V11.6072ZM22.879 5.47678L20.5592 6.81608L21.4521 8.36256L23.7718 7.02326L22.879 5.47678ZM16.6376 3.54806L17.9769 1.22834L19.5234 2.1212L18.1841 4.44092L16.6376 3.54806ZM5.47678 2.1212L6.81608 4.44092L8.36256 3.54806L7.02326 1.22834L5.47678 2.1212ZM3.548 8.36256L1.22828 7.02326L2.12114 5.47678L4.44086 6.81608L3.548 8.36256ZM2.67858 11.6072H0V13.3929H2.67858V11.6072ZM22.879 19.5233L20.5593 18.184L21.4521 16.6375L23.7719 17.9768L22.879 19.5233Z" fill="url(#paint0_linear_707_5773)"/>
<path id="Union" fill-rule="evenodd" clip-rule="evenodd" d="M8.4826 23.2141C8.50743 23.2141 8.53222 23.2139 8.55697 23.2136H15.1194C15.1308 23.2138 15.1422 23.214 15.1537 23.2141H15.179C15.179 23.2141 15.179 23.2141 15.179 23.2141C16.6584 23.2141 17.8576 22.015 17.8576 20.5356C17.8576 19.0563 16.6584 17.8571 15.1791 17.8571C14.4921 17.8571 13.8655 18.1157 13.3914 18.5408C13.3952 18.4622 13.397 18.3831 13.397 18.3036C13.397 17.7007 13.2884 17.1231 13.0896 16.5895C13.713 16.2587 14.4241 16.0713 15.1791 16.0713C17.6446 16.0713 19.6434 18.0701 19.6434 20.5356C19.6434 23.0012 17.6446 25 15.1791 25C15.1681 25 15.1572 24.9999 15.1463 24.9998L8.51719 24.9998C8.50566 24.9999 8.49413 24.9999 8.4826 24.9999C4.78424 24.9999 1.78613 22.0017 1.78613 18.3034C1.78613 14.605 4.78424 11.6069 8.4826 11.6069C11.4041 11.6069 13.8887 13.4778 14.8035 16.0869C14.1871 16.1382 13.6063 16.3148 13.0865 16.591C12.3916 14.7232 10.5925 13.3926 8.4826 13.3926C5.77047 13.3926 3.57185 15.5913 3.57185 18.3034C3.57185 21.0155 5.77047 23.2141 8.4826 23.2141Z" fill="url(#paint1_linear_707_5773)"/>
</g>
<defs>
<linearGradient id="paint0_linear_707_5773" x1="12.5" y1="0" x2="12.5" y2="19.5233" gradientUnits="userSpaceOnUse">
<stop stop-color="#EFC977"/>
<stop offset="1" stop-color="#E07256"/>
</linearGradient>
<linearGradient id="paint1_linear_707_5773" x1="10.7147" y1="11.6069" x2="10.7147" y2="25" gradientUnits="userSpaceOnUse">
<stop stop-color="#B2D4F7"/>
<stop offset="1" stop-color="#D9E2F3"/>
</linearGradient>
</defs>
</svg>
