<svg width="25" height="25" viewBox="0 0 25 25" fill="none" xmlns="http://www.w3.org/2000/svg">
<g id="Group 165">
<path id="Subtract" fill-rule="evenodd" clip-rule="evenodd" d="M24.8351 6.04222C25.0257 5.33062 25.0459 4.6135 24.9209 3.93419C24.4379 5.03975 23.2126 5.66561 22.0045 5.35936C21.6092 5.25917 21.2598 5.07038 20.9721 4.81957C20.8468 4.72717 20.7328 4.61969 20.6327 4.49925C20.457 4.28771 20.3284 4.04105 20.2555 3.77577L20.2481 3.74795C20.092 3.29968 20.061 2.80226 20.1862 2.30778C20.4395 1.30706 21.2609 0.600433 22.2187 0.44501C21.9732 0.33156 21.7146 0.23743 21.4445 0.164994C19.0392 -0.480002 16.5708 0.824741 15.7148 3.11116C16.274 3.60348 16.7712 4.16469 17.1931 4.78154C17.1949 4.53017 17.2284 4.27489 17.2964 4.02069C17.4871 3.3085 17.9171 2.72486 18.4764 2.33294C18.4477 2.44546 18.4242 2.55947 18.4059 2.67461C18.3221 3.20339 18.3521 3.74397 18.4939 4.26022C18.6356 4.77647 18.8859 5.25648 19.2279 5.66816C19.5699 6.07984 19.9958 6.41369 20.4772 6.64739C20.9585 6.88109 21.4841 7.00926 22.0189 7.02332C22.0912 7.02522 22.1635 7.02503 22.2356 7.02276C21.5025 7.69326 20.4538 7.98656 19.4242 7.71049C19.0213 7.60245 18.6594 7.41741 18.3502 7.1754C18.4374 7.45717 18.511 7.74491 18.5703 8.03784C18.6295 8.03591 18.6888 8.03493 18.7484 8.03493C20.0147 8.03493 21.1784 8.47468 22.0953 9.20989C23.3975 8.64932 24.4398 7.51893 24.8351 6.04222Z" fill="url(#paint0_linear_707_5821)"/>
<path id="Union" fill-rule="evenodd" clip-rule="evenodd" d="M0 9.82145C0 13.7168 2.18679 17.0825 5.35676 18.6703V16.6074C3.22315 15.1922 1.78559 12.7046 1.78559 9.82145C1.78559 5.32186 5.28694 1.78572 9.471 1.78572C13.0204 1.78572 16.0784 4.33041 16.9245 7.84926L16.9272 7.84816C17.0467 8.33639 17.1229 8.84258 17.1513 9.36206C17.7076 9.08321 18.3265 8.9286 18.9712 8.9286C21.2532 8.9286 23.2126 10.8657 23.2126 13.3929C23.2126 14.9201 22.497 16.2319 21.427 17.0308V19.1022C23.5316 18.1272 24.9982 15.9377 24.9982 13.3929C24.9982 9.9411 22.2998 7.14288 18.9712 7.14288C18.8428 7.14288 18.7153 7.14705 18.5889 7.15526C17.4685 3.02658 13.8106 0 9.471 0C4.24031 0 0 4.39721 0 9.82145ZM14.9265 16.2523C15.1138 16.3605 15.407 16.3133 15.557 16.0534C15.6391 15.9111 15.7447 15.6156 15.8211 15.1344C15.8516 14.9426 15.8746 14.7403 15.8912 14.5325C15.3698 14.9015 14.9747 15.2754 14.7835 15.6067C14.6336 15.8665 14.7393 16.1442 14.9265 16.2523ZM15.8867 12.4301C16.8173 11.9087 17.6052 11.6108 17.6052 11.6108C17.6052 11.6108 17.7082 12.4493 17.7123 13.5057C17.7167 14.663 17.6022 16.0818 17.1032 16.9465C16.4757 18.0339 15.1015 18.4156 14.034 17.7989C12.9665 17.1823 12.6098 15.801 13.2373 14.7136C13.7849 13.7647 14.9138 12.9752 15.8867 12.4301ZM9.03158 17.1611C9.21879 17.2692 9.51205 17.222 9.662 16.9622C9.74413 16.8199 9.84969 16.5243 9.92614 16.0432C9.95662 15.8513 9.97961 15.649 9.99625 15.4413C9.4748 15.8102 9.07972 16.1842 8.88855 16.5154C8.73859 16.7753 8.84436 17.053 9.03158 17.1611ZM9.99171 13.3389C10.9223 12.8175 11.7102 12.5196 11.7102 12.5196C11.7102 12.5196 11.8133 13.3581 11.8173 14.4145C11.8217 15.5718 11.7072 16.9906 11.2082 17.8553C10.5807 18.9427 9.20656 19.3243 8.13902 18.7077C7.07148 18.0911 6.71479 16.7097 7.34232 15.6223C7.88993 14.6734 9.01881 13.884 9.99171 13.3389ZM17.5695 21.5294C17.4196 21.7892 17.1263 21.8364 16.9391 21.7283C16.7519 21.6202 16.6461 21.3425 16.7961 21.0826C16.9872 20.7514 17.3823 20.3774 17.9038 20.0085C17.8871 20.2162 17.8641 20.4185 17.8337 20.6104C17.7572 21.0915 17.6516 21.3871 17.5695 21.5294ZM19.6177 17.0868C19.6177 17.0868 18.8298 17.3846 17.8992 17.9061C16.9263 18.4512 15.7975 19.2406 15.2498 20.1895C14.6223 21.2769 14.979 22.6583 16.0465 23.2749C17.1141 23.8915 18.4882 23.5099 19.1157 22.4225C19.6148 21.5578 19.7292 20.1389 19.7248 18.9817C19.7208 17.9253 19.6177 17.0868 19.6177 17.0868ZM10.941 23.1585C11.1282 23.2666 11.4215 23.2194 11.5715 22.9596C11.6536 22.8173 11.7591 22.5217 11.8356 22.0405C11.8661 21.8487 11.8891 21.6464 11.9057 21.4387C11.3842 21.8076 10.9892 22.1816 10.798 22.5128C10.648 22.7727 10.7538 23.0503 10.941 23.1585ZM11.9012 19.3362C12.8317 18.8148 13.6196 18.517 13.6196 18.517C13.6196 18.517 13.7227 19.3554 13.7267 20.4119C13.7311 21.5691 13.6167 22.988 13.1177 23.8527C12.4901 24.9401 11.116 25.3217 10.0485 24.7051C8.98092 24.0885 8.62423 22.7071 9.25177 21.6197C9.79938 20.6708 10.9283 19.8814 11.9012 19.3362Z" fill="url(#paint1_linear_707_5821)"/>
</g>
<defs>
<linearGradient id="paint0_linear_707_5821" x1="20.3573" y1="0.000289917" x2="20.3573" y2="9.20989" gradientUnits="userSpaceOnUse">
<stop stop-color="#F5BD52"/>
<stop offset="1" stop-color="#F5DA79"/>
</linearGradient>
<linearGradient id="paint1_linear_707_5821" x1="12.4991" y1="0" x2="12.4991" y2="25" gradientUnits="userSpaceOnUse">
<stop stop-color="#95B6F6"/>
<stop offset="1" stop-color="#5193DE"/>
</linearGradient>
</defs>
</svg>
