<svg width="25" height="25" viewBox="0 0 25 25" fill="none" xmlns="http://www.w3.org/2000/svg">
<g id="Group 159">
<path id="Vector 26 (Stroke)" fill-rule="evenodd" clip-rule="evenodd" d="M13.5428 13.0915L15.0286 14.0969L12.3825 18.1255H16.9247L12.0333 25.0001L10.5856 23.9388L13.4323 19.9381H9.0459L13.5428 13.0915Z" fill="url(#paint0_linear_707_5809)"/>
<path id="Subtract" fill-rule="evenodd" clip-rule="evenodd" d="M23.1948 10.1602C24.3066 9.087 24.9997 7.57104 24.9997 5.89077C24.9997 2.63739 22.4013 0 19.1961 0C17.191 0 15.4234 1.03208 14.3809 2.60142C14.8369 3.03928 15.2497 3.52313 15.612 4.04566C16.2755 2.72049 17.6313 1.81255 19.1961 1.81255C21.4151 1.81255 23.2139 3.63843 23.2139 5.89077C23.2139 6.89313 22.8577 7.81103 22.2667 8.52113C22.6574 9.00889 22.9727 9.56133 23.1948 10.1602Z" fill="url(#paint1_linear_707_5809)"/>
<path id="Subtract_2" fill-rule="evenodd" clip-rule="evenodd" d="M7.14286 19.6344C3.03783 18.5421 0 14.629 0 9.969C0 4.46327 4.24062 0 9.47168 0C13.8116 0 17.4697 3.07205 18.5902 7.26275C18.7166 7.25442 18.8441 7.25019 18.9726 7.25019C22.3014 7.25019 25 10.0904 25 13.5941C25 17.0977 22.3014 19.938 18.9726 19.938C18.8981 19.938 18.8239 19.9366 18.75 19.9337V18.1255H19.0205V18.1251C21.2821 18.0979 23.2143 16.1412 23.2143 13.5941C23.2143 11.029 21.2547 9.06274 18.9726 9.06274C18.3278 9.06274 17.7089 9.21967 17.1525 9.50271C17.1242 8.97543 17.048 8.46163 16.9285 7.96606L16.9258 7.96718C16.0796 4.39546 13.0213 1.81255 9.47168 1.81255C5.28732 1.81255 1.78571 5.40181 1.78571 9.969C1.78571 13.6537 4.06483 16.7018 7.14286 17.7423V19.6344Z" fill="url(#paint2_linear_707_5809)"/>
</g>
<defs>
<linearGradient id="paint0_linear_707_5809" x1="12.9853" y1="13.0915" x2="12.9853" y2="25.0001" gradientUnits="userSpaceOnUse">
<stop stop-color="#F5BD52"/>
<stop offset="1" stop-color="#F5DA79"/>
</linearGradient>
<linearGradient id="paint1_linear_707_5809" x1="19.6903" y1="0" x2="19.6903" y2="10.1602" gradientUnits="userSpaceOnUse">
<stop stop-color="#EFC977"/>
<stop offset="1" stop-color="#E07256"/>
</linearGradient>
<linearGradient id="paint2_linear_707_5809" x1="12.5" y1="0" x2="12.5" y2="19.938" gradientUnits="userSpaceOnUse">
<stop stop-color="#95B6F6"/>
<stop offset="1" stop-color="#5193DE"/>
</linearGradient>
</defs>
</svg>
