<svg width="56" height="56" viewBox="0 0 56 56" fill="none" xmlns="http://www.w3.org/2000/svg">
<g id="Group 176">
<path id="Subtract" fill-rule="evenodd" clip-rule="evenodd" d="M26.0001 0V6.00002H30.0001V0H26.0001ZM37.2249 38.5315C40.152 35.9655 42.0002 32.1986 42.0002 28.0001C42.0002 20.2681 35.7321 14.0001 28.0001 14.0001C20.2681 14.0001 14.0001 20.2681 14.0001 28.0001C14.0001 28.2837 14.0085 28.5654 14.0251 28.8448C12.6556 29.3261 11.377 30.0005 10.2221 30.8354C10.0759 29.9118 10 28.9648 10 28.0001C10 18.0589 18.0589 10 28.0001 10C37.9413 10 46.0002 18.0589 46.0002 28.0001C46.0002 32.9372 44.0125 37.41 40.7938 40.6621C39.7774 39.7207 38.5651 38.9878 37.2249 38.5315ZM50.0002 26.0001H56.0002V30.0001H50.0002V26.0001ZM51.2489 12.268L46.0527 15.268L48.0527 18.7321L53.2489 15.7321L51.2489 12.268ZM37.2682 7.94765L40.2682 2.75148L43.7323 4.75148L40.7323 9.94766L37.2682 7.94765ZM12.268 4.75148L15.268 9.94766L18.7321 7.94765L15.7321 2.75148L12.268 4.75148ZM7.94753 18.7321L2.75135 15.7321L4.75136 12.268L9.94753 15.268L7.94753 18.7321ZM6.00002 26.0001H0V30.0001H6.00002V26.0001ZM51.249 43.7322L46.0528 40.7322L48.0528 37.2681L53.249 40.2681L51.249 43.7322Z" fill="url(#paint0_linear_112_7528)"/>
<path id="Union" fill-rule="evenodd" clip-rule="evenodd" d="M19.0001 51.9998C19.0558 51.9998 19.1113 51.9994 19.1667 51.9985H33.8666C33.8921 51.9991 33.9178 51.9995 33.9434 51.9997H34.0002C34.0002 51.9997 34.0002 51.9997 34.0002 51.9997C37.3139 51.9997 40.0002 49.3137 40.0002 46C40.0002 42.6862 37.3139 39.9999 34.0002 39.9999C32.4614 39.9999 31.0579 40.5792 29.9959 41.5315C30.0043 41.3555 30.0085 41.1783 30.0085 41.0002C30.0085 39.6496 29.7651 38.3559 29.3198 37.1606C30.7163 36.4196 32.3092 35.9999 34.0002 35.9999C39.5231 35.9999 44.0003 40.4771 44.0003 46C44.0003 51.5228 39.5231 56 34.0002 56C33.9757 56 33.9513 55.9999 33.9269 55.9998L19.0776 55.9998C19.0518 55.9999 19.026 55.9998 19.0001 55.9998C10.7158 55.9998 4.00006 49.284 4.00006 40.9997C4.00006 32.7154 10.7158 25.9996 19.0001 25.9996C25.5443 25.9996 31.1097 30.1904 33.159 36.0347C31.7783 36.1497 30.4772 36.5452 29.313 37.1641C27.7562 32.9802 23.7263 29.9996 19.0001 29.9996C12.925 29.9996 8.00008 34.9245 8.00008 40.9997C8.00008 47.0749 12.925 51.9998 19.0001 51.9998Z" fill="url(#paint1_linear_112_7528)"/>
</g>
<defs>
<linearGradient id="paint0_linear_112_7528" x1="28.0001" y1="0" x2="28.0001" y2="43.7322" gradientUnits="userSpaceOnUse">
<stop stop-color="#EFC977"/>
<stop offset="1" stop-color="#E07256"/>
</linearGradient>
<linearGradient id="paint1_linear_112_7528" x1="24.0002" y1="25.9996" x2="24.0002" y2="56" gradientUnits="userSpaceOnUse">
<stop stop-color="#B2D4F7"/>
<stop offset="1" stop-color="#D9E2F3"/>
</linearGradient>
</defs>
</svg>
