<svg width="26" height="26" viewBox="0 0 26 26" fill="none" xmlns="http://www.w3.org/2000/svg">
<g id="menu">
<path id="menu_2" d="M2.70801 6.50001C2.70801 6.20101 2.95067 5.95834 3.24967 5.95834H22.7497C23.0487 5.95834 23.2913 6.20101 23.2913 6.50001C23.2913 6.79901 23.0487 7.04168 22.7497 7.04168H3.24967C2.95067 7.04168 2.70801 6.79901 2.70801 6.50001ZM22.7497 12.4583H3.24967C2.95067 12.4583 2.70801 12.701 2.70801 13C2.70801 13.299 2.95067 13.5417 3.24967 13.5417H22.7497C23.0487 13.5417 23.2913 13.299 23.2913 13C23.2913 12.701 23.0487 12.4583 22.7497 12.4583ZM22.7497 18.9583H3.24967C2.95067 18.9583 2.70801 19.201 2.70801 19.5C2.70801 19.799 2.95067 20.0417 3.24967 20.0417H22.7497C23.0487 20.0417 23.2913 19.799 23.2913 19.5C23.2913 19.201 23.0487 18.9583 22.7497 18.9583Z" fill="white"/>
</g>
</svg>
