<svg width="27" height="35" viewBox="0 0 27 35" fill="none" xmlns="http://www.w3.org/2000/svg">
<g id="vuesax/linear/mobile">
<g id="mobile">
<path id="Vector" d="M26 9.25V25.75C26 32.35 24.4375 34 18.1875 34H8.8125C2.5625 34 1 32.35 1 25.75V9.25C1 2.65 2.5625 1 8.8125 1H18.1875C24.4375 1 26 2.65 26 9.25Z" stroke="white" stroke-opacity="0.7" stroke-width="1.5" stroke-linecap="round" stroke-linejoin="round"/>
<path id="Vector_2" d="M16.625 6.77499H10.375" stroke="white" stroke-opacity="0.7" stroke-width="1.5" stroke-linecap="round" stroke-linejoin="round"/>
<path id="Vector_3" d="M13.5 29.215C14.8376 29.215 15.9219 28.07 15.9219 26.6575C15.9219 25.245 14.8376 24.1 13.5 24.1C12.1624 24.1 11.0781 25.245 11.0781 26.6575C11.0781 28.07 12.1624 29.215 13.5 29.215Z" stroke="white" stroke-opacity="0.7" stroke-width="1.5" stroke-linecap="round" stroke-linejoin="round"/>
</g>
</g>
</svg>
