<svg width="25" height="25" viewBox="0 0 25 25" fill="none" xmlns="http://www.w3.org/2000/svg">
<path id="outline" fill-rule="evenodd" clip-rule="evenodd" d="M10.4168 5.25572L10.4168 5.24798L4.5202 5.24788L10.1764 2.66621L10.1758 2.66408C10.2841 2.62959 10.3962 2.61731 10.5078 2.62782C10.5225 2.62921 10.5372 2.63099 10.5519 2.63317L10.5521 2.63321C10.7053 2.656 10.8525 2.7215 10.9832 2.82497L10.9833 2.82499C11.114 2.92847 11.2248 3.06734 11.3079 3.23156L11.308 3.23183C11.391 3.39607 11.4441 3.58155 11.4635 3.77487L11.4635 3.77524C11.4828 3.96865 11.4679 4.16506 11.4198 4.35028L11.4198 4.35043C11.3716 4.5357 11.2915 4.70513 11.1852 4.84647L11.1851 4.8466C11.0788 4.98788 10.949 5.09755 10.805 5.1677L10.8048 5.16783C10.7912 5.17442 10.7776 5.18065 10.7639 5.18651C10.6521 5.23427 10.5347 5.25765 10.4168 5.25572ZM0 4.51259V7.8796L10.3954 7.87976C10.7902 7.88535 11.1829 7.79616 11.5524 7.6161L11.5526 7.61597C11.8339 7.47887 12.0971 7.29137 12.3345 7.06005C12.461 6.93687 12.58 6.80127 12.6906 6.65424L12.6907 6.65412C13.009 6.23095 13.2488 5.72373 13.393 5.1691L13.393 5.16895C13.5371 4.61433 13.5819 4.02618 13.5241 3.44703L13.524 3.44666C13.4662 2.86749 13.3072 2.3118 13.0586 1.81977L13.0584 1.8195C12.8098 1.32742 12.4776 0.911317 12.086 0.601301L12.086 0.601286C11.95 0.493552 11.8079 0.399565 11.6612 0.319921C11.3857 0.17038 11.0938 0.071404 10.7943 0.0269344L10.7941 0.0269015C10.3479 -0.0393105 9.8959 0.0170716 9.46887 0.191957L9.46855 0.190835L9.43659 0.205424L9.43282 0.207027L9.43239 0.207212L9.43242 0.20733L0 4.51259ZM0 15.7868V18.4901L13.7561 24.6718L13.7559 24.6723C14.2537 24.9232 14.7892 25.0323 15.3242 24.9917C15.53 24.9762 15.7337 24.9386 15.9332 24.8798C16.2527 24.7858 16.5615 24.6374 16.8511 24.4378C17.3217 24.1135 17.7298 23.6621 18.0465 23.1157C18.3631 22.5693 18.5805 21.9414 18.683 21.2767C18.7856 20.612 18.7709 19.9269 18.6399 19.2702C18.509 18.6135 18.265 18.0014 17.9253 17.4775C17.7163 17.155 17.4741 16.8708 17.206 16.632C17.0386 16.4828 16.861 16.3514 16.675 16.2393C16.192 15.9482 15.6642 15.7951 15.129 15.7908V15.7869L0 15.7868ZM15.1149 18.4187L6.0574 18.4186L14.5669 22.2426L14.5661 22.2453C14.7684 22.3396 14.984 22.38 15.1995 22.3636C15.4286 22.3463 15.6519 22.2653 15.8534 22.1264C16.0549 21.9876 16.2297 21.7943 16.3652 21.5603C16.5008 21.3263 16.5939 21.0574 16.6378 20.7728C16.6818 20.4881 16.6755 20.1947 16.6194 19.9135C16.5633 19.6323 16.4588 19.3702 16.3134 19.1459C16.1679 18.9215 15.9851 18.7405 15.778 18.6156C15.5711 18.491 15.345 18.4254 15.1159 18.4236L15.1149 18.4236L15.1149 18.4231L15.1149 18.4187ZM19.8105 5.5896L19.8095 5.59026L18.785 3.29888L18.7838 3.29623L18.7859 3.29477C19.3406 2.89933 19.9597 2.66982 20.5956 2.6239C20.6878 2.61724 20.7801 2.61447 20.8721 2.61555C21.4157 2.62194 21.9539 2.76268 22.4562 3.03104C23.0435 3.34487 23.566 3.82486 23.9834 4.43405C24.4008 5.04323 24.702 5.76534 24.8638 6.54477C25.0255 7.32419 25.0435 8.14012 24.9163 8.92972C24.7892 9.71931 24.5203 10.4615 24.1304 11.0991C23.797 11.6442 23.3827 12.1005 22.9116 12.443C22.8318 12.5011 22.7503 12.5559 22.6673 12.6073C22.0946 12.962 21.4652 13.1458 20.8275 13.1447V13.1443H0V10.5127H20.8304L20.8304 10.5099C21.149 10.5105 21.4634 10.4186 21.7494 10.2415C22.0355 10.0643 22.2855 9.80655 22.4803 9.48805C22.6751 9.16955 22.8094 8.7988 22.8729 8.40438C22.9365 8.00995 22.9275 7.60236 22.8467 7.21301C22.7659 6.82366 22.6154 6.46294 22.4069 6.15863C22.1984 5.85433 21.9374 5.61455 21.644 5.45778C21.3506 5.30102 21.0326 5.23144 20.7146 5.2544C20.3969 5.27734 20.0876 5.39202 19.8105 5.5896Z" fill="url(#paint0_linear_707_5832)"/>
<defs>
<linearGradient id="paint0_linear_707_5832" x1="12.5" y1="0" x2="12.5" y2="25" gradientUnits="userSpaceOnUse">
<stop stop-color="#CED3EA"/>
<stop offset="1" stop-color="#7E83A9"/>
</linearGradient>
</defs>
</svg>
