<svg width="26" height="26" viewBox="0 0 26 26" fill="none" xmlns="http://www.w3.org/2000/svg">
<g id="search">
<path id="search_2" d="M23.1331 22.3665L18.79 18.0234C20.2373 16.3963 21.1257 14.261 21.1257 11.9167C21.1257 6.83909 16.9949 2.70834 11.9173 2.70834C6.83973 2.70834 2.70898 6.83909 2.70898 11.9167C2.70898 16.9943 6.83973 21.125 11.9173 21.125C14.2617 21.125 16.3969 20.2367 18.0241 18.7893L22.3671 23.1324C22.4733 23.2386 22.612 23.2906 22.7507 23.2906C22.8893 23.2906 23.028 23.2375 23.1342 23.1324C23.3443 22.9212 23.3443 22.5788 23.1331 22.3665ZM3.79126 11.9167C3.79126 7.43709 7.43559 3.79168 11.9163 3.79168C16.3969 3.79168 20.0413 7.43709 20.0413 11.9167C20.0413 16.3963 16.3969 20.0417 11.9163 20.0417C7.43559 20.0417 3.79126 16.3963 3.79126 11.9167Z" fill="white"/>
</g>
</svg>
