<svg width="35" height="35" viewBox="0 0 35 35" fill="none" xmlns="http://www.w3.org/2000/svg">
<g id="SVGRepo_iconCarrier">
<path id="Vector" d="M33.9999 23.4999C33.9999 29.3049 29.3049 33.9999 23.4999 33.9999L25.0749 31.3749" stroke="white" stroke-opacity="0.7" stroke-linecap="round" stroke-linejoin="round"/>
<path id="Vector_2" d="M1 11.5C1 5.695 5.695 1 11.5 1L9.925 3.625" stroke="white" stroke-opacity="0.7" stroke-linecap="round" stroke-linejoin="round"/>
<path id="Vector_3" d="M21.7751 22.54C21.7751 27.6549 17.6351 31.7948 12.5201 31.7948C7.40507 31.7948 3.26508 27.6549 3.26508 22.54C3.26508 17.425 7.40507 13.2848 12.5201 13.2848C12.7601 13.2848 12.9851 13.2998 13.2401 13.3148C17.7851 13.6598 21.4151 17.2898 21.7601 21.8348C21.7601 22.0598 21.7751 22.285 21.7751 22.54Z" stroke="white" stroke-opacity="0.7" stroke-miterlimit="10" stroke-linecap="round" stroke-linejoin="round"/>
<path id="Vector_4" d="M31.75 12.5501C31.75 17.6651 27.61 21.8051 22.495 21.8051H21.76C21.415 17.2601 17.785 13.6301 13.24 13.2851V12.5501C13.24 7.43507 17.38 3.2951 22.495 3.2951C27.61 3.2951 31.75 7.43507 31.75 12.5501Z" stroke="white" stroke-opacity="0.7" stroke-miterlimit="10" stroke-linecap="round" stroke-linejoin="round"/>
</g>
</svg>
