<svg width="19" height="19" viewBox="0 0 19 19" fill="none" xmlns="http://www.w3.org/2000/svg">
<g id="thermometer-temperature-svgrepo-com 1">
<g id="Group">
<g id="Group_2">
<path id="Vector" d="M13.2567 12.236V2.58793C13.2567 1.16093 12.0957 0 10.6688 0C9.24176 0 8.08083 1.16093 8.08083 2.58793V12.236C5.43731 14.6132 7.13317 19 10.6688 19C14.2114 19 15.8962 14.6097 13.2567 12.236ZM9.47109 2.58793C9.47106 1.92754 10.0083 1.39023 10.6687 1.39023C11.3291 1.39023 11.8665 1.9275 11.8665 2.58793V8.49679H9.47109V2.58793ZM10.6688 17.6098C8.27918 17.6098 7.27014 14.546 9.18988 13.1231C9.36678 12.992 9.47109 12.7848 9.47109 12.5647V9.88713H11.8665V12.5647C11.8665 12.7848 11.9708 12.992 12.1477 13.1231C14.0663 14.5452 13.0608 17.6098 10.6688 17.6098Z" fill="white" fill-opacity="0.6"/>
</g>
</g>
<g id="Group_3">
<g id="Group_4">
<path id="Vector_2" d="M6.31759 8.80493H5.14923C4.76534 8.80493 4.4541 9.11617 4.4541 9.50006C4.4541 9.88396 4.76534 10.1952 5.14923 10.1952H6.31759C6.70148 10.1952 7.01272 9.88396 7.01272 9.50006C7.01272 9.11617 6.70148 8.80493 6.31759 8.80493Z" fill="white" fill-opacity="0.6"/>
</g>
</g>
<g id="Group_5">
<g id="Group_6">
<path id="Vector_3" d="M6.31759 6.51514H5.14923C4.76534 6.51514 4.4541 6.82637 4.4541 7.21027C4.4541 7.59417 4.76534 7.9054 5.14923 7.9054H6.31759C6.70148 7.9054 7.01272 7.59417 7.01272 7.21027C7.01272 6.82637 6.70148 6.51514 6.31759 6.51514Z" fill="white" fill-opacity="0.6"/>
</g>
</g>
<g id="Group_7">
<g id="Group_8">
<path id="Vector_4" d="M6.31759 4.22534H5.14923C4.76534 4.22534 4.4541 4.53658 4.4541 4.92047C4.4541 5.30437 4.76534 5.61561 5.14923 5.61561H6.31759C6.70148 5.61561 7.01272 5.30437 7.01272 4.92047C7.01272 4.53658 6.70148 4.22534 6.31759 4.22534Z" fill="white" fill-opacity="0.6"/>
</g>
</g>
</g>
</svg>
