<svg width="12" height="10" viewBox="0 0 12 10" fill="none" xmlns="http://www.w3.org/2000/svg">
<path id="Vector" d="M0.9675 6.92165C0.734696 6.11777 0.688009 5.26921 0.831157 4.44355C0.974305 3.61789 1.30333 2.83793 1.79205 2.16576C2.28076 1.49359 2.91566 0.947776 3.64619 0.571783C4.37673 0.195791 5.18272 0 6 0C6.81728 0 7.62327 0.195791 8.35381 0.571783C9.08434 0.947776 9.71924 1.49359 10.208 2.16576C10.6967 2.83793 11.0257 3.61789 11.1688 4.44355C11.312 5.26921 11.2653 6.11777 11.0325 6.92165H10.245C10.4843 6.22528 10.5574 5.48018 10.4581 4.74885C10.3588 4.01752 10.09 3.3213 9.67429 2.71858C9.25859 2.11586 8.70808 1.62422 8.06896 1.28492C7.42983 0.945611 6.72072 0.768531 6.00113 0.768531C5.28153 0.768531 4.57242 0.945611 3.93329 1.28492C3.29417 1.62422 2.74366 2.11586 2.32796 2.71858C1.91226 3.3213 1.64348 4.01752 1.54418 4.74885C1.44488 5.48018 1.51794 6.22528 1.75725 6.92165H0.9675ZM0.375 7.69124H11.625C11.875 7.69124 12 7.8195 12 8.07603C12 8.33256 11.875 8.46082 11.625 8.46082H0.375C0.125 8.46082 0 8.33256 0 8.07603C0 7.8195 0.125 7.69124 0.375 7.69124ZM3.375 9.23041H8.625C8.875 9.23041 9 9.35868 9 9.61521C9 9.87174 8.875 10 8.625 10H3.375C3.125 10 3 9.87174 3 9.61521C3 9.35868 3.125 9.23041 3.375 9.23041Z" fill="#FAC32D"/>
</svg>
