<svg width="15" height="10" viewBox="0 0 15 10" fill="none" xmlns="http://www.w3.org/2000/svg">
<path id="Vector" d="M0.46875 9.09091H14.5312C14.6556 9.09091 14.7748 9.1388 14.8627 9.22404C14.9506 9.30929 15 9.4249 15 9.54545C15 9.66601 14.9506 9.78162 14.8627 9.86687C14.7748 9.95211 14.6556 10 14.5312 10H0.46875C0.34443 10 0.225201 9.95211 0.137294 9.86687C0.049386 9.78162 0 9.66601 0 9.54545C0 9.4249 0.049386 9.30929 0.137294 9.22404C0.225201 9.1388 0.34443 9.09091 0.46875 9.09091ZM2.36438 7.72727C2.47944 6.48353 3.07029 5.32655 4.02068 4.48393C4.97108 3.64131 6.21224 3.17404 7.5 3.17404C8.78776 3.17404 10.0289 3.64131 10.9793 4.48393C11.9297 5.32655 12.5206 6.48353 12.6356 7.72727H11.6934C11.5798 6.72582 11.089 5.80025 10.3152 5.12793C9.54143 4.45561 8.53898 4.08383 7.5 4.08383C6.46102 4.08383 5.45857 4.45561 4.68476 5.12793C3.91095 5.80025 3.42021 6.72582 3.30656 7.72727H2.36438ZM7.5 0C7.62432 0 7.74355 0.0478896 7.83146 0.133133C7.91936 0.218377 7.96875 0.333993 7.96875 0.454545V1.81818C7.96875 1.93873 7.91936 2.05435 7.83146 2.13959C7.74355 2.22484 7.62432 2.27273 7.5 2.27273C7.37568 2.27273 7.25645 2.22484 7.16854 2.13959C7.08064 2.05435 7.03125 1.93873 7.03125 1.81818V0.454545C7.03125 0.333993 7.08064 0.218377 7.16854 0.133133C7.25645 0.0478896 7.37568 0 7.5 0ZM13.4663 2.39636C13.5541 2.4816 13.6035 2.5972 13.6035 2.71773C13.6035 2.83826 13.5541 2.95385 13.4663 3.03909L12.4725 4.00273C12.4293 4.04614 12.3775 4.08077 12.3203 4.10459C12.2632 4.12841 12.2016 4.14095 12.1394 4.14148C12.0772 4.142 12.0154 4.1305 11.9578 4.10765C11.9002 4.08479 11.8479 4.05104 11.8039 4.00836C11.7599 3.96568 11.7251 3.91493 11.7015 3.85907C11.6779 3.80321 11.6661 3.74335 11.6666 3.683C11.6671 3.62265 11.6801 3.563 11.7046 3.50754C11.7292 3.45209 11.7649 3.40193 11.8097 3.36L12.8034 2.39636C12.8913 2.31115 13.0105 2.26328 13.1348 2.26328C13.2591 2.26328 13.3783 2.31115 13.4663 2.39636ZM1.53375 2.39636C1.62165 2.31115 1.74086 2.26328 1.86516 2.26328C1.98945 2.26328 2.10866 2.31115 2.19656 2.39636L3.19031 3.36C3.23508 3.40193 3.27079 3.45209 3.29536 3.50754C3.31993 3.563 3.33286 3.62265 3.3334 3.683C3.33394 3.74335 3.32208 3.80321 3.29851 3.85907C3.27494 3.91493 3.24013 3.96568 3.19612 4.00836C3.15211 4.05104 3.09977 4.08479 3.04217 4.10765C2.98456 4.1305 2.92283 4.142 2.86059 4.14148C2.79835 4.14095 2.73684 4.12841 2.67965 4.10459C2.62246 4.08077 2.57074 4.04614 2.5275 4.00273L1.53375 3.03909C1.44587 2.95385 1.39651 2.83826 1.39651 2.71773C1.39651 2.5972 1.44587 2.4816 1.53375 2.39636Z" fill="#FAC32D"/>
</svg>
